<svg width="512" height="512" viewBox="0 0 512 512" fill="none" xmlns="http://www.w3.org/2000/svg" role="img" aria-labelledby="title desc">
  <title id="title">Flowline logo mark</title>
  <desc id="desc">Neon connected pipe mark for Flowline.</desc>
  <defs>
    <filter id="glowCyan" x="-50%" y="-50%" width="200%" height="200%" color-interpolation-filters="sRGB">
      <feGaussianBlur stdDeviation="13" result="blur"/>
      <feColorMatrix in="blur" type="matrix" values="0 0 0 0 0 0 0 0 0 0.81 0 0 0 0 0.9 0 0 0 1 0"/>
      <feMerge><feMergeNode/><feMergeNode in="SourceGraphic"/></feMerge>
    </filter>
    <filter id="glowGreen" x="-50%" y="-50%" width="200%" height="200%" color-interpolation-filters="sRGB">
      <feGaussianBlur stdDeviation="11" result="blur"/>
      <feColorMatrix in="blur" type="matrix" values="0 0 0 0 0.18 0 0 0 0 1 0 0 0 0 0.44 0 0 0 1 0"/>
      <feMerge><feMergeNode/><feMergeNode in="SourceGraphic"/></feMerge>
    </filter>
  </defs>
  <rect x="34" y="34" width="444" height="444" rx="112" fill="#07070C"/>
  <rect x="74" y="74" width="364" height="364" rx="66" fill="#101018" stroke="#1C1C2A" stroke-width="8"/>
  <path d="M141 147H309C345 147 369 171 369 207V274" stroke="#00CED1" stroke-width="34" stroke-linecap="round" stroke-linejoin="round" filter="url(#glowCyan)"/>
  <path d="M141 365V275C141 239 165 215 201 215H247" stroke="#2ECC71" stroke-width="30" stroke-linecap="round" stroke-linejoin="round" filter="url(#glowGreen)"/>
  <circle cx="141" cy="147" r="48" fill="#00CED1" filter="url(#glowCyan)"/>
  <circle cx="369" cy="274" r="48" fill="#00CED1" filter="url(#glowCyan)"/>
  <circle cx="141" cy="365" r="43" fill="#2ECC71" filter="url(#glowGreen)"/>
  <circle cx="247" cy="215" r="43" fill="#2ECC71" filter="url(#glowGreen)"/>
  <circle cx="125" cy="132" r="16" fill="white" fill-opacity="0.38"/>
  <circle cx="354" cy="259" r="16" fill="white" fill-opacity="0.32"/>
  <circle cx="127" cy="350" r="14" fill="white" fill-opacity="0.3"/>
  <circle cx="234" cy="202" r="14" fill="white" fill-opacity="0.3"/>
</svg>
